<svg aria-hidden="true" style="position: absolute; width: 0; height: 0; overflow: hidden;" version="1.1" xmlns="http://www.w3.org/2000/svg" xmlns:xlink="http://www.w3.org/1999/xlink">
<defs>
<symbol id="google" viewBox="0 0 30 32">
<path d="M25.937 13.099v-3.93h-2.62v3.93h-3.93v2.62h3.93v3.93h2.62v-3.93h3.93v-2.62h-3.93zM15.85 17.553l-1.441-1.048c-0.524-0.393-1.048-0.917-1.048-1.834s0.655-1.703 1.31-2.096c1.703-1.31 3.406-2.751 3.406-5.633 0-2.751-1.703-4.323-2.62-5.109h2.227l1.572-1.834h-8.122c-5.764 0-8.646 3.668-8.646 7.597 0 3.013 2.358 6.288 6.55 6.288h1.048c-0.131 0.393-0.524 1.048-0.524 1.703 0 1.31 0.524 1.834 1.179 2.62-1.834 0.131-5.24 0.524-7.729 2.096-2.358 1.441-3.013 3.406-3.013 4.847 0 3.013 2.751 5.895 8.646 5.895 7.074 0 10.48-3.93 10.48-7.728-0-2.751-1.441-4.192-3.275-5.764zM5.895 5.633c0-2.882 1.703-4.192 3.537-4.192 3.406 0 5.24 4.585 5.24 7.205 0 3.406-2.751 4.061-3.799 4.061-3.275 0-4.978-4.061-4.978-7.074zM10.61 29.211c-4.323 0-7.074-1.965-7.074-4.847s2.62-3.799 3.406-4.192c1.703-0.524 3.93-0.655 4.323-0.655s0.655 0 0.917 0c3.144 2.227 4.454 3.144 4.454 5.24 0 2.489-2.489 4.454-6.026 4.454z"></path>
</symbol>
<symbol id="twitter" viewBox="0 0 39 32">
<path  d="M39.006 3.752c-1.451 0.636-2.996 1.058-4.608 1.263 1.658-0.99 2.923-2.545 3.518-4.42-1.546 0.922-3.252 1.572-5.071 1.936-1.468-1.563-3.559-2.53-5.841-2.53-4.427 0-7.991 3.593-7.991 7.999 0 0.634 0.054 1.243 0.185 1.824-6.648-0.324-12.531-3.511-16.482-8.364-0.69 1.197-1.095 2.567-1.095 4.042 0 2.769 1.426 5.224 3.552 6.646-1.285-0.024-2.545-0.397-3.613-0.985 0 0.024 0 0.056 0 0.088 0 3.886 2.772 7.114 6.407 7.857-0.651 0.178-1.36 0.263-2.097 0.263-0.512 0-1.029-0.029-1.514-0.137 1.036 3.167 3.976 5.495 7.472 5.57-2.721 2.128-6.175 3.411-9.915 3.411-0.656 0-1.285-0.029-1.914-0.11 3.542 2.284 7.74 3.589 12.267 3.589 14.715 0 22.76-12.189 22.76-22.755 0-0.354-0.012-0.695-0.029-1.034 1.587-1.126 2.92-2.533 4.008-4.152z"></path>
</symbol>
<symbol id="facebook" viewBox="0 0 16 32">
<path d="M13.079 5.313h2.921v-5.088c-0.504-0.069-2.237-0.225-4.256-0.225-4.212 0-7.097 2.649-7.097 7.519v4.481h-4.648v5.688h4.648v14.312h5.698v-14.311h4.46l0.708-5.688h-5.169v-3.919c0.001-1.644 0.444-2.769 2.734-2.769v0z"></path>
</symbol>
</defs>
</svg>
