<svg width="163" height="103" viewBox="0 0 163 103" fill="none" xmlns="http://www.w3.org/2000/svg">
<path d="M76.12 73.48L74.88 69.8C75.36 69.48 76.0267 69.1867 76.88 68.92C77.76 68.6533 78.64 68.4533 79.52 68.32C80.4 68.16 81.1067 68.08 81.64 68.08C83.16 68.08 84.5333 68.3867 85.76 69C86.9867 69.6133 87.96 70.44 88.68 71.48C89.4 72.52 89.76 73.7067 89.76 75.04V88H86.76L86.08 86.04C85.3867 86.7067 84.56 87.28 83.6 87.76C82.64 88.24 81.6533 88.48 80.64 88.48C78.32 88.48 76.6 87.9067 75.48 86.76C74.36 85.5867 73.8 84.1067 73.8 82.32C73.8 80.3467 74.4667 78.84 75.8 77.8C77.1333 76.7333 78.8667 76.2 81 76.2H85.24V76.08C85.2133 74.9333 84.9333 74 84.4 73.28C83.8667 72.5333 82.9733 72.16 81.72 72.16C80.7067 72.16 79.6933 72.3067 78.68 72.6C77.6933 72.8667 76.84 73.16 76.12 73.48ZM77.72 82.32C77.72 82.96 77.96 83.56 78.44 84.12C78.9467 84.6533 79.6533 84.92 80.56 84.92C81.44 84.92 82.28 84.72 83.08 84.32C83.88 83.92 84.6133 83.3733 85.28 82.68V79.2H80.92C79.88 79.2 79.08 79.52 78.52 80.16C77.9867 80.7733 77.72 81.4933 77.72 82.32ZM98.7219 88H94.2419V68.6H96.6419L98.1219 71.8C98.6285 71.3467 99.2552 70.88 100.002 70.4C100.775 69.8933 101.575 69.4667 102.402 69.12C103.229 68.7733 103.989 68.6 104.682 68.6L105.602 72.2C104.642 72.2 103.509 72.5467 102.202 73.24C100.922 73.9067 99.7619 74.7067 98.7219 75.64V88ZM111.064 88H108.704V60.2L113.184 59.76V69.12C114.464 68.4267 115.731 68.08 116.984 68.08C118.984 68.08 120.704 68.5067 122.144 69.36C123.611 70.1867 124.731 71.3733 125.504 72.92C126.304 74.4667 126.704 76.28 126.704 78.36C126.704 80.36 126.304 82.1333 125.504 83.68C124.704 85.2 123.571 86.3867 122.104 87.24C120.638 88.0933 118.904 88.52 116.904 88.52C116.211 88.52 115.411 88.36 114.504 88.04C113.598 87.72 112.758 87.28 111.984 86.72L111.064 88ZM116.904 71.92C116.184 71.92 115.518 72.0267 114.904 72.24C114.318 72.4533 113.744 72.7733 113.184 73.2V83.44C113.744 83.8667 114.331 84.1733 114.944 84.36C115.558 84.5467 116.211 84.64 116.904 84.64C118.531 84.64 119.798 84.04 120.704 82.84C121.611 81.64 122.064 80.1467 122.064 78.36C122.064 76.4667 121.611 74.92 120.704 73.72C119.824 72.52 118.558 71.92 116.904 71.92ZM147.061 79.48H133.621C133.808 81.0267 134.368 82.28 135.301 83.24C136.261 84.2 137.768 84.68 139.821 84.68C140.968 84.68 141.968 84.52 142.821 84.2C143.675 83.88 144.581 83.4667 145.541 82.96L146.901 86.24C145.968 86.88 144.915 87.4133 143.741 87.84C142.595 88.2667 141.261 88.48 139.741 88.48C136.141 88.48 133.435 87.56 131.621 85.72C129.808 83.8533 128.901 81.3733 128.901 78.28C128.901 76.2533 129.275 74.48 130.021 72.96C130.795 71.4133 131.888 70.2133 133.301 69.36C134.715 68.5067 136.408 68.08 138.381 68.08C140.408 68.08 142.061 68.56 143.341 69.52C144.621 70.48 145.555 71.76 146.141 73.36C146.755 74.9333 147.061 76.6533 147.061 78.52V79.48ZM133.701 76.48H142.741C142.501 75.0133 142.008 73.8933 141.261 73.12C140.541 72.32 139.541 71.92 138.261 71.92C136.981 71.92 135.941 72.32 135.141 73.12C134.368 73.92 133.888 75.04 133.701 76.48ZM154.933 88H150.453V68.6H152.853L154.333 71.8C154.839 71.3467 155.466 70.88 156.213 70.4C156.986 69.8933 157.786 69.4667 158.613 69.12C159.439 68.7733 160.199 68.6 160.893 68.6L161.813 72.2C160.853 72.2 159.719 72.5467 158.413 73.24C157.133 73.9067 155.973 74.7067 154.933 75.64V88Z" fill="#99BAED"/>
<g clip-path="url(#clip0)">
<path d="M50.5803 7.77584C44.6236 8.29699 40.0962 13.5571 40.6169 19.5145L43.2968 50.1482L33.162 54.8735C29.7678 48.9757 22.3668 46.5552 16.0846 49.485C9.45122 52.5794 6.58174 60.4628 9.67428 67.0971C12.768 73.7299 20.6523 76.6013 27.2873 73.5076C31.8398 71.3846 34.6184 67.0039 34.9143 62.3216L47.3265 56.5333L48.5196 70.1754C44.6133 72.7733 42.209 77.3698 42.6457 82.3736C43.2841 89.6662 49.7121 95.0582 57.003 94.4212C64.2956 93.7827 69.6885 87.3552 69.0511 80.0643C68.447 73.1594 62.6501 67.9605 55.8458 67.969L54.8707 56.8294L82.7388 43.8338C88.1593 41.3065 90.4502 34.7552 87.9231 29.3359L53.8559 45.2238L50.5803 7.77584ZM27.6756 64.9207C25.7785 68.2067 21.5764 69.3326 18.2905 67.4355C15.0045 65.5383 13.8787 61.3362 15.7758 58.0503C17.6733 54.7636 21.8749 53.6385 25.1609 55.5356C28.4468 57.4327 29.5732 61.634 27.6756 64.9207ZM61.7886 84.6158C59.8914 87.9018 55.6894 89.0277 52.4034 87.1306C49.1175 85.2334 47.9916 81.0314 49.8887 77.7455C51.7863 74.4588 55.9879 73.3336 59.2738 75.2307C62.5597 77.1278 63.6861 81.3291 61.7886 84.6158Z" fill="#99BAED"/>
</g>
<defs>
<clipPath id="clip0">
<rect width="74.2244" height="74.2244" fill="white" transform="translate(0 64.2803) rotate(-60)"/>
</clipPath>
</defs>
</svg>
